<svg width="1400" height="420" viewBox="0 0 1400 420" fill="none" xmlns="http://www.w3.org/2000/svg" role="img" aria-labelledby="title desc">
  <title id="title">Asterwynd wordmark</title>
  <desc id="desc">A terminal-style Asterwynd wordmark with a star, wind trace, and cursor accent.</desc>
  <defs>
    <linearGradient id="textGradient" x1="126" y1="168" x2="1278" y2="168" gradientUnits="userSpaceOnUse">
      <stop offset="0" stop-color="#F8FAFC"/>
      <stop offset="0.42" stop-color="#BAE6FD"/>
      <stop offset="0.72" stop-color="#C4B5FD"/>
      <stop offset="1" stop-color="#F6C453"/>
    </linearGradient>
    <linearGradient id="traceGradient" x1="275" y1="257" x2="1124" y2="282" gradientUnits="userSpaceOnUse">
      <stop offset="0" stop-color="#38BDF8"/>
      <stop offset="0.54" stop-color="#8B5CF6"/>
      <stop offset="1" stop-color="#F6C453"/>
    </linearGradient>
    <filter id="softGlow" x="-10%" y="-30%" width="120%" height="160%" color-interpolation-filters="sRGB">
      <feGaussianBlur stdDeviation="10" result="blur"/>
      <feColorMatrix in="blur" type="matrix" values="0.3 0 0 0 0 0 0.55 0 0 0 0 0 1 0 0 0 0 0 0.55 0"/>
      <feMerge>
        <feMergeNode/>
        <feMergeNode in="SourceGraphic"/>
      </feMerge>
    </filter>
  </defs>

  <rect x="22" y="22" width="1356" height="376" rx="34" fill="#070B16"/>
  <rect x="23" y="23" width="1354" height="374" rx="33" stroke="#1E293B" stroke-width="2"/>
  <path d="M73 86H1327" stroke="#162033" stroke-width="2" stroke-dasharray="7 17"/>
  <path d="M73 338H1327" stroke="#162033" stroke-width="2" stroke-dasharray="7 17"/>

  <g transform="translate(118 94)">
    <path d="M0 -35L9 -9L36 0L9 9L0 35L-9 9L-36 0L-9 -9L0 -35Z" fill="#FFF7D6"/>
    <path d="M0 -35L9 -9L36 0L9 9L0 35L-9 9L-36 0L-9 -9L0 -35Z" stroke="#F6C453" stroke-width="4" stroke-linejoin="round"/>
  </g>

  <text x="132" y="212"
        fill="url(#textGradient)"
        font-family="JetBrains Mono, IBM Plex Mono, SFMono-Regular, Consolas, Liberation Mono, Menlo, monospace"
        font-size="118"
        font-weight="800"
        letter-spacing="4">
    Asterwynd
  </text>

  <g filter="url(#softGlow)">
    <path d="M263 268C403 226 534 230 667 258C823 291 954 290 1130 238" stroke="url(#traceGradient)" stroke-width="15" stroke-linecap="round"/>
    <path d="M303 305C471 279 610 284 752 306C895 329 1009 318 1136 278" stroke="url(#traceGradient)" stroke-width="8" stroke-linecap="round" opacity="0.78"/>
  </g>

  <text x="132" y="318"
        fill="#94A3B8"
        font-family="JetBrains Mono, IBM Plex Mono, SFMono-Regular, Consolas, Liberation Mono, Menlo, monospace"
        font-size="31"
        font-weight="500"
        letter-spacing="0">
    Navigate by stars. Prove with traces.
  </text>

  <rect x="1196" y="160" width="34" height="87" rx="4" fill="#F6C453"/>
  <circle cx="1248" cy="191" r="7" fill="#38BDF8"/>
  <circle cx="1276" cy="191" r="7" fill="#8B5CF6"/>
  <circle cx="1304" cy="191" r="7" fill="#F6C453"/>
</svg>
